<mxfile host="app.diagrams.net" modified="2023-03-27T23:04:37.449Z" agent="Mozilla/5.0 (Windows NT 10.0; Win64; x64) AppleWebKit/537.36 (KHTML, like Gecko) Chrome/111.0.0.0 Safari/537.36 Edg/111.0.1661.54" etag="UmT2N9XOZnBmiynxMb8f" version="21.1.1" type="github">
  <diagram name="PÃ¡gina-1" id="rkHG6nmuOjkpt8-TUzvK">
    <mxGraphModel dx="737" dy="477" grid="1" gridSize="10" guides="1" tooltips="1" connect="1" arrows="1" fold="1" page="1" pageScale="1" pageWidth="827" pageHeight="1169" math="0" shadow="0">
      <root>
        <mxCell id="0" />
        <mxCell id="1" parent="0" />
        <mxCell id="XnEvQe8ai3ZGjiJY6H-x-5" value="Cadastro de Proponentes&lt;br&gt;" style="shape=rect;html=1;verticalAlign=top;fontStyle=1;whiteSpace=wrap;align=center;" vertex="1" parent="1">
          <mxGeometry x="199" y="30" width="430" height="450" as="geometry" />
        </mxCell>
        <mxCell id="XnEvQe8ai3ZGjiJY6H-x-2" value="Incluir Proponente" style="ellipse;whiteSpace=wrap;html=1;" vertex="1" parent="1">
          <mxGeometry x="310" y="80" width="90" height="70" as="geometry" />
        </mxCell>
        <mxCell id="XnEvQe8ai3ZGjiJY6H-x-3" value="Adm Site" style="shape=umlActor;html=1;verticalLabelPosition=bottom;verticalAlign=top;align=center;" vertex="1" parent="1">
          <mxGeometry x="30" y="220" width="30" height="60" as="geometry" />
        </mxCell>
        <mxCell id="XnEvQe8ai3ZGjiJY6H-x-4" value="" style="edgeStyle=none;html=1;endArrow=block;endFill=0;endSize=12;verticalAlign=bottom;rounded=0;entryX=0;entryY=0.5;entryDx=0;entryDy=0;" edge="1" parent="1" source="XnEvQe8ai3ZGjiJY6H-x-3" target="XnEvQe8ai3ZGjiJY6H-x-2">
          <mxGeometry width="160" relative="1" as="geometry">
            <mxPoint x="90" y="160" as="sourcePoint" />
            <mxPoint x="250" y="160" as="targetPoint" />
          </mxGeometry>
        </mxCell>
        <mxCell id="XnEvQe8ai3ZGjiJY6H-x-7" value="Alterar Proponente" style="ellipse;whiteSpace=wrap;html=1;" vertex="1" parent="1">
          <mxGeometry x="330" y="170" width="96" height="70" as="geometry" />
        </mxCell>
        <mxCell id="XnEvQe8ai3ZGjiJY6H-x-8" value="Excluir Proponente" style="ellipse;whiteSpace=wrap;html=1;" vertex="1" parent="1">
          <mxGeometry x="318" y="290" width="96" height="70" as="geometry" />
        </mxCell>
        <mxCell id="XnEvQe8ai3ZGjiJY6H-x-13" value="" style="edgeStyle=none;html=1;endArrow=block;endFill=0;endSize=12;verticalAlign=bottom;rounded=0;entryX=0;entryY=0.714;entryDx=0;entryDy=0;entryPerimeter=0;exitX=0.5;exitY=0.5;exitDx=0;exitDy=0;exitPerimeter=0;" edge="1" parent="1" source="XnEvQe8ai3ZGjiJY6H-x-3" target="XnEvQe8ai3ZGjiJY6H-x-7">
          <mxGeometry width="160" relative="1" as="geometry">
            <mxPoint x="100" y="239.5" as="sourcePoint" />
            <mxPoint x="260" y="239.5" as="targetPoint" />
          </mxGeometry>
        </mxCell>
        <mxCell id="XnEvQe8ai3ZGjiJY6H-x-14" value="" style="edgeStyle=none;html=1;endArrow=block;endFill=0;endSize=12;verticalAlign=bottom;rounded=0;exitX=0.833;exitY=0.783;exitDx=0;exitDy=0;exitPerimeter=0;" edge="1" parent="1" source="XnEvQe8ai3ZGjiJY6H-x-3" target="XnEvQe8ai3ZGjiJY6H-x-8">
          <mxGeometry width="160" relative="1" as="geometry">
            <mxPoint x="110" y="309.5" as="sourcePoint" />
            <mxPoint x="330" y="270" as="targetPoint" />
          </mxGeometry>
        </mxCell>
      </root>
    </mxGraphModel>
  </diagram>
</mxfile>
